<?xml version="1.0" encoding="UTF-8" ?>
<!DOCTYPE svg PUBLIC "-//W3C//DTD SVG 1.1//EN" "http://www.w3.org/Graphics/SVG/1.1/DTD/svg11.dtd">
<svg width="525pt" height="337pt" viewBox="0 0 525 337" version="1.1" xmlns="http://www.w3.org/2000/svg">
<path fill="#ef4a2b" d=" M 0.00 0.00 L 238.44 0.00 C 246.23 10.08 253.91 20.25 261.72 30.32 C 262.63 31.30 262.83 32.63 262.77 33.93 C 262.72 64.83 262.77 95.73 262.75 126.63 C 252.03 137.28 241.07 147.70 230.53 158.52 C 241.08 168.30 251.04 178.70 261.49 188.58 C 263.45 190.12 262.59 192.83 262.78 194.97 C 262.72 242.31 262.76 289.66 262.76 337.00 L 262.20 337.00 C 241.05 309.73 220.03 282.36 199.00 255.00 C 199.00 233.34 199.00 211.67 199.00 190.00 C 181.90 190.02 164.81 189.95 147.71 190.04 C 133.52 171.96 119.47 153.76 105.34 135.63 C 103.07 132.63 100.51 129.84 98.70 126.52 C 132.13 126.46 165.56 126.52 199.00 126.49 C 199.00 105.50 199.00 84.51 199.00 63.51 C 149.10 63.49 99.21 63.51 49.31 63.50 C 32.86 42.44 16.44 21.36 0.00 0.29 L 0.00 0.00 Z" />
<path fill="#000000" fill-opacity="1.0" d=" M 238.44 0.00 L 349.00 0.00 C 342.10 8.75 335.53 17.77 328.68 26.56 C 327.58 28.25 325.68 29.75 325.76 31.93 C 325.72 42.44 325.77 52.94 325.75 63.45 C 375.74 63.60 425.73 63.42 475.72 63.54 C 492.20 42.50 508.57 21.37 525.00 0.29 L 525.00 337.00 L 262.76 337.00 C 262.76 289.66 262.72 242.31 262.78 194.97 C 262.59 192.83 263.45 190.12 261.49 188.58 C 251.04 178.70 241.08 168.30 230.53 158.52 C 241.07 147.70 252.03 137.28 262.75 126.63 C 262.77 95.73 262.72 64.83 262.77 33.93 C 262.83 32.63 262.63 31.30 261.72 30.32 C 253.91 20.25 246.23 10.08 238.44 0.00 Z" />
<path fill="#ef4a2b" d=" M 349.00 0.00 L 525.00 0.00 L 525.00 0.29 C 508.57 21.37 492.20 42.50 475.72 63.54 C 425.73 63.42 375.74 63.60 325.75 63.45 C 325.77 52.94 325.72 42.44 325.76 31.93 C 325.68 29.75 327.58 28.25 328.68 26.56 C 335.53 17.77 342.10 8.75 349.00 0.00 Z" />
<path fill="#000000" fill-opacity="1.0" d=" M 0.00 0.29 C 16.44 21.36 32.86 42.44 49.31 63.50 C 99.21 63.51 149.10 63.49 199.00 63.51 C 199.00 84.51 199.00 105.50 199.00 126.49 C 165.56 126.52 132.13 126.46 98.70 126.52 C 100.51 129.84 103.07 132.63 105.34 135.63 C 119.47 153.76 133.52 171.96 147.71 190.04 C 164.81 189.95 181.90 190.02 199.00 190.00 C 199.00 211.67 199.00 233.34 199.00 255.00 C 220.03 282.36 241.05 309.73 262.20 337.00 L 0.00 337.00 L 0.00 0.29 Z" />
<path fill="#ef4a2b" d=" M 325.76 126.51 C 359.41 126.50 393.06 126.47 426.71 126.53 C 410.51 147.37 394.28 168.19 378.13 189.07 C 377.27 190.53 375.36 189.83 374.01 190.02 C 357.92 189.97 341.84 190.02 325.75 190.00 C 325.75 168.83 325.74 147.67 325.76 126.51 Z" />
</svg>
